# xmcd
#
# Track frame offsets: 
#        150
#        14529
#        29104
#        43896
#        58607
#        71730
#        83877
#        97153
#        109186
#        123230
#        136342
#        152229
#        165368
#        179510
#        192816
#        205130
#        217867
#        229928
#        243148
#        255597
#        268759
#        282595
#
# Disc length: 3950 seconds
#
# Revision: 3
# Processed by: cddbd v1.5.2PL0 Copyright (c) Steve Scherf et al.
# Submitted via: ExactAudioCopyFreeDBPlugin 1.0
#
DISCID=470f6c16
DTITLE=T-Bone Walker - T-Bone Walker:  The Original Source [Proper Rec
DTITLE=ords]
DYEAR=2002
DGENRE=Blues
TTITLE0=Trinity River Blues
TTITLE1=Wichita Falls Blues
TTITLE2=T-Bone Blues
TTITLE3=I Got a Break, Baby
TTITLE4=Mean Old World
TTITLE5=Sail on Boogie
TTITLE6=I'm Still in Love with You
TTITLE7=You Don't Love Me Blues
TTITLE8=T-Bone Boogie
TTITLE9=Mean Old World Blues
TTITLE10=Evening
TTITLE11=My Baby Left Me
TTITLE12=Come Back to Me Baby Blues
TTITLE13=She is Going to Ruin Me
TTITLE14=No Worry Blues
TTITLE15=Don't Leave Me Baby
TTITLE16=Bobby Sox Blues
TTITLE17=I'm Gonna Find My Baby
TTITLE18=I'm in an Awful Mood
TTITLE19=It's a Low Down Dirty Deal
TTITLE20=Don't Give Me the Runaround
TTITLE21=Hard Pain Blues
EXTD=ID3G: 14
EXTT0=
EXTT1=
EXTT2=
EXTT3=
EXTT4=
EXTT5=
EXTT6=
EXTT7=
EXTT8=
EXTT9=
EXTT10=
EXTT11=
EXTT12=
EXTT13=
EXTT14=
EXTT15=
EXTT16=
EXTT17=
EXTT18=
EXTT19=
EXTT20=
EXTT21=
PLAYORDER=
